<svg width="12" height="8" viewBox="0 0 12 8" fill="none" xmlns="http://www.w3.org/2000/svg">
<path d="M3.09272 3.95208C3.54842 3.95208 3.98546 3.77105 4.30769 3.44882C4.62992 3.12659 4.81095 2.68955 4.81095 2.23385C4.81095 1.77815 4.62992 1.34111 4.30769 1.01888C3.98546 0.696652 3.54842 0.515625 3.09272 0.515625H0.515381V7.38853H3.09272C3.54842 7.38853 3.98546 7.20751 4.30769 6.88528C4.62992 6.56305 4.81095 6.12601 4.81095 5.67031C4.81095 5.2146 4.62992 4.77757 4.30769 4.45534C3.98546 4.13311 3.54842 3.95208 3.09272 3.95208ZM3.09272 3.95208H0.515381M6.81555 4.52482H10.8247C10.8247 3.99317 10.6135 3.48329 10.2376 3.10736C9.86167 2.73142 9.3518 2.52022 8.82014 2.52022C8.28849 2.52022 7.77861 2.73142 7.40268 3.10736C7.02674 3.48329 6.81555 3.99317 6.81555 4.52482ZM6.81555 4.52482V5.67031C6.87462 6.0991 7.07091 6.49725 7.37504 6.80523C7.67918 7.11322 8.07484 7.31448 8.50285 7.37894C8.93087 7.4434 9.36825 7.36759 9.74961 7.16285C10.131 6.9581 10.4358 6.63542 10.6186 6.24305M7.96103 0.515625H9.67926" stroke="white" stroke-width="1.03094" stroke-linecap="round" stroke-linejoin="round"/>
</svg>
