<svg width="10" height="10" viewBox="0 0 10 10" fill="none" xmlns="http://www.w3.org/2000/svg">
<path d="M3.52252 8.1615C1.37474 8.80583 1.37474 7.08761 0.515625 6.87283M6.52942 9.45017V7.78778C6.54553 7.58296 6.51786 7.37704 6.44824 7.18374C6.37862 6.99043 6.26865 6.81416 6.12564 6.66664C7.47444 6.5163 8.89198 6.00512 8.89198 3.65974C8.89187 3.06001 8.66118 2.48327 8.24765 2.04891C8.44346 1.52421 8.42962 0.944237 8.20899 0.429478C8.20899 0.429478 7.70211 0.279133 6.52942 1.06522C5.54488 0.798391 4.50706 0.798391 3.52252 1.06522C2.34983 0.279133 1.84296 0.429478 1.84296 0.429478C1.62232 0.944237 1.60848 1.52421 1.8043 2.04891C1.38768 2.4865 1.15675 3.06844 1.15996 3.67263C1.15996 6.00083 2.5775 6.512 3.92631 6.67953C3.78498 6.82557 3.67599 6.99972 3.60642 7.19067C3.53685 7.38161 3.50826 7.58506 3.52252 7.78778V9.45017" stroke="white" stroke-width="1.03094" stroke-linecap="round" stroke-linejoin="round"/>
</svg>
