<svg width="10" height="10" viewBox="0 0 10 10" fill="none" xmlns="http://www.w3.org/2000/svg">
<path d="M6.52917 3.09297C7.21273 3.09297 7.86828 3.36451 8.35163 3.84785C8.83497 4.3312 9.10651 4.98675 9.10651 5.67031V8.6772H7.38829V5.67031C7.38829 5.44245 7.29777 5.22394 7.13666 5.06282C6.97554 4.90171 6.75703 4.81119 6.52917 4.81119C6.30132 4.81119 6.0828 4.90171 5.92169 5.06282C5.76057 5.22394 5.67006 5.44245 5.67006 5.67031V8.6772H3.95183V5.67031C3.95183 4.98675 4.22337 4.3312 4.70672 3.84785C5.19006 3.36451 5.84562 3.09297 6.52917 3.09297Z" stroke="white" stroke-width="1.03094" stroke-linecap="round" stroke-linejoin="round"/>
<path d="M2.23361 3.52252H0.515381V8.6772H2.23361V3.52252Z" stroke="white" stroke-width="1.03094" stroke-linecap="round" stroke-linejoin="round"/>
<path d="M1.37449 2.23385C1.84897 2.23385 2.23361 1.84921 2.23361 1.37474C2.23361 0.900263 1.84897 0.515625 1.37449 0.515625C0.900019 0.515625 0.515381 0.900263 0.515381 1.37474C0.515381 1.84921 0.900019 2.23385 1.37449 2.23385Z" stroke="white" stroke-width="1.03094" stroke-linecap="round" stroke-linejoin="round"/>
</svg>
